HIERARCHY
ROOT reference
{
  OFFSET 0 0 0
  CHANNELS 6 Xposition Yposition Zposition Zrotation Xrotation Yrotation
  JOINT Hips
  {
    OFFSET 340.57 87.5694 214.797
    CHANNELS 3 Zrotation Xrotation Yrotation
    JOINT RightUpLeg
    {
      OFFSET -9.35418 -1.55218 -0.019184
      CHANNELS 3 Zrotation Xrotation Yrotation
      JOINT RightLeg
      {
        OFFSET -0.0482219 -41.8948 0.0725956
        CHANNELS 3 Zrotation Xrotation Yrotation
        JOINT RightFoot
        {
          OFFSET -1.00159 -42.3965 -1.97064
          CHANNELS 3 Zrotation Xrotation Yrotation
          End Site
          {
            OFFSET 0 -7.69 17.5
          }
        }
      }
    }
    JOINT LeftUpLeg
    {
      OFFSET 9.33628 -1.64535 -0.0795185
      CHANNELS 3 Zrotation Xrotation Yrotation
      JOINT LeftLeg
      {
        OFFSET 0.124871 -41.8725 -0.08325
        CHANNELS 3 Zrotation Xrotation Yrotation
        JOINT LeftFoot
        {
          OFFSET 0.728222 -40.8097 2.1196
          CHANNELS 3 Zrotation Xrotation Yrotation
          End Site
          {
            OFFSET 0 -7.69 17.5
          }
        }
      }
    }
    JOINT Spine
    {
      OFFSET -0.0135102 14.2943 0.0647361
      CHANNELS 3 Zrotation Xrotation Yrotation
      JOINT Spine1
      {
        OFFSET 0.0181502 9.72385 0.0148045
        CHANNELS 3 Zrotation Xrotation Yrotation
        JOINT Spine2
        {
          OFFSET 0.0557859 10.1166 -0.00979693
          CHANNELS 3 Zrotation Xrotation Yrotation
          JOINT Spine3
          {
            OFFSET 0.0359868 9.71757 0.00306838
            CHANNELS 3 Zrotation Xrotation Yrotation
            JOINT Neck
            {
              OFFSET 0.139197 10.3803 0.0501204
              CHANNELS 3 Zrotation Xrotation Yrotation
              JOINT Head
              {
                OFFSET 0.148012 9.47645 -0.000545472
                CHANNELS 3 Zrotation Xrotation Yrotation
                End Site
                {
                  OFFSET 0 15.95 0
                }
              }
            }
            JOINT RightShoulder
            {
              OFFSET -3.16276 6.92807 0.0312834
              CHANNELS 3 Zrotation Xrotation Yrotation
              JOINT RightArm
              {
                OFFSET -12.7681 0.0492996 0.0890957
                CHANNELS 3 Zrotation Xrotation Yrotation
                JOINT RightForeArm
                {
                  OFFSET -26.4761 -0.090776 0.147076
                  CHANNELS 3 Zrotation Xrotation Yrotation
                  JOINT RightHand
                  {
                    OFFSET -25.9655 0.0607057 -0.248467
                    CHANNELS 3 Zrotation Xrotation Yrotation
                    JOINT RightHandThumb1
                    {
                      OFFSET -2.48905 0.190105 3.12053
                      CHANNELS 3 Zrotation Xrotation Yrotation
                      JOINT RightHandThumb2
                      {
                        OFFSET -3.68274 0 0
                        CHANNELS 3 Zrotation Xrotation Yrotation
                        JOINT RightHandThumb3
                        {
                          OFFSET -2.55832 0 0
                          CHANNELS 3 Zrotation Xrotation Yrotation
                          End Site
                          {
                            OFFSET -2.194 0 0
                          }
                        }
                      }
                    }
                    JOINT RightInHandIndex
                    {
                      OFFSET -3.22368 0.508421 1.97842
                      CHANNELS 3 Zrotation Xrotation Yrotation
                      JOINT RightHandIndex1
                      {
                        OFFSET -5.21684 -0.091368 0.999158
                        CHANNELS 3 Zrotation Xrotation Yrotation
                        JOINT RightHandIndex2
                        {
                          OFFSET -3.61937 0 0
                          CHANNELS 3 Zrotation Xrotation Yrotation
                          JOINT RightHandIndex3
                          {
                            OFFSET -2.0521 0 0
                            CHANNELS 3 Zrotation Xrotation Yrotation
                            End Site
                            {
                              OFFSET -1.805 0 0
                            }
                          }
                        }
                      }
                    }
                    JOINT RightInHandMiddle
                    {
                      OFFSET -3.38211 0.517263 0.756737
                      CHANNELS 3 Zrotation Xrotation Yrotation
                      JOINT RightHandMiddle1
                      {
                        OFFSET -5.17411 -0.084 0.313895
                        CHANNELS 3 Zrotation Xrotation Yrotation
                        JOINT RightHandMiddle2
                        {
                          OFFSET -3.94947 0 0
                          CHANNELS 3 Zrotation Xrotation Yrotation
                          JOINT RightHandMiddle3
                          {
                            OFFSET -2.47579 0 0
                            CHANNELS 3 Zrotation Xrotation Yrotation
                            End Site
                            {
                              OFFSET -1.975 0 0
                            }
                          }
                        }
                      }
                    }
                    JOINT RightInHandRing
                    {
                      OFFSET -3.36516 0.537895 -0.128947
                      CHANNELS 3 Zrotation Xrotation Yrotation
                      JOINT RightHandRing1
                      {
                        OFFSET -4.63474 -0.022105 -0.478947
                        CHANNELS 3 Zrotation Xrotation Yrotation
                        JOINT RightHandRing2
                        {
                          OFFSET -3.44238 0 0
                          CHANNELS 3 Zrotation Xrotation Yrotation
                          JOINT RightHandRing3
                          {
                            OFFSET -2.3881 0 0
                            CHANNELS 3 Zrotation Xrotation Yrotation
                            End Site
                            {
                              OFFSET -1.857 0 0
                            }
                          }
                        }
                      }
                    }
                    JOINT RightInHandPinky
                    {
                      OFFSET -3.16105 0.469368 -1.20179
                      CHANNELS 3 Zrotation Xrotation Yrotation
                      JOINT RightHandPinky1
                      {
                        OFFSET -4.14105 -0.022105 -1.09053
                        CHANNELS 3 Zrotation Xrotation Yrotation
                        JOINT RightHandPinky2
                        {
                          OFFSET -2.75653 0 0
                          CHANNELS 3 Zrotation Xrotation Yrotation
                          JOINT RightHandPinky3
                          {
                            OFFSET -1.74189 0 0
                            CHANNELS 3 Zrotation Xrotation Yrotation
                            End Site
                            {
                              OFFSET -1.645 0 0
                            }
                          }
                        }
                      }
                    }
                  }
                }
              }
            }
            JOINT LeftShoulder
            {
              OFFSET 3.20588 6.97332 0.0254387
              CHANNELS 3 Zrotation Xrotation Yrotation
              JOINT LeftArm
              {
                OFFSET 12.8648 0.0341024 0.0247643
                CHANNELS 3 Zrotation Xrotation Yrotation
                JOINT LeftForeArm
                {
                  OFFSET 26.5059 -0.0470976 -0.0807017
                  CHANNELS 3 Zrotation Xrotation Yrotation
                  JOINT LeftHand
                  {
                    OFFSET 26.0013 -0.0100885 -0.0649647
                    CHANNELS 3 Zrotation Xrotation Yrotation
                    JOINT LeftHandThumb1
                    {
                      OFFSET 2.48905 0.190105 3.12053
                      CHANNELS 3 Zrotation Xrotation Yrotation
                      JOINT LeftHandThumb2
                      {
                        OFFSET 3.68274 0 0
                        CHANNELS 3 Zrotation Xrotation Yrotation
                        JOINT LeftHandThumb3
                        {
                          OFFSET 2.55832 0 0
                          CHANNELS 3 Zrotation Xrotation Yrotation
                          End Site
                          {
                            OFFSET 2.194 0 0
                          }
                        }
                      }
                    }
                    JOINT LeftInHandIndex
                    {
                      OFFSET 3.22368 0.508421 1.97842
                      CHANNELS 3 Zrotation Xrotation Yrotation
                      JOINT LeftHandIndex1
                      {
                        OFFSET 5.21684 -0.091368 0.999158
                        CHANNELS 3 Zrotation Xrotation Yrotation
                        JOINT LeftHandIndex2
                        {
                          OFFSET 3.61937 0 0
                          CHANNELS 3 Zrotation Xrotation Yrotation
                          JOINT LeftHandIndex3
                          {
                            OFFSET 2.0521 0 0
                            CHANNELS 3 Zrotation Xrotation Yrotation
                            End Site
                            {
                              OFFSET 1.805 0 0
                            }
                          }
                        }
                      }
                    }
                    JOINT LeftInHandMiddle
                    {
                      OFFSET 3.38211 0.517263 0.756737
                      CHANNELS 3 Zrotation Xrotation Yrotation
                      JOINT LeftHandMiddle1
                      {
                        OFFSET 5.17411 -0.084 0.313895
                        CHANNELS 3 Zrotation Xrotation Yrotation
                        JOINT LeftHandMiddle2
                        {
                          OFFSET 3.94947 0 0
                          CHANNELS 3 Zrotation Xrotation Yrotation
                          JOINT LeftHandMiddle3
                          {
                            OFFSET 2.47579 0 0
                            CHANNELS 3 Zrotation Xrotation Yrotation
                            End Site
                            {
                              OFFSET 1.975 0 0
                            }
                          }
                        }
                      }
                    }
                    JOINT LeftInHandRing
                    {
                      OFFSET 3.36516 0.537895 -0.128947
                      CHANNELS 3 Zrotation Xrotation Yrotation
                      JOINT LeftHandRing1
                      {
                        OFFSET 4.63474 -0.022105 -0.478947
                        CHANNELS 3 Zrotation Xrotation Yrotation
                        JOINT LeftHandRing2
                        {
                          OFFSET 3.44238 0 0
                          CHANNELS 3 Zrotation Xrotation Yrotation
                          JOINT LeftHandRing3
                          {
                            OFFSET 2.3881 0 0
                            CHANNELS 3 Zrotation Xrotation Yrotation
                            End Site
                            {
                              OFFSET 1.857 0 0
                            }
                          }
                        }
                      }
                    }
                    JOINT LeftInHandPinky
                    {
                      OFFSET 3.16105 0.469368 -1.20179
                      CHANNELS 3 Zrotation Xrotation Yrotation
                      JOINT LeftHandPinky1
                      {
                        OFFSET 4.14105 -0.022105 -1.09053
                        CHANNELS 3 Zrotation Xrotation Yrotation
                        JOINT LeftHandPinky2
                        {
                          OFFSET 2.75653 0 0
                          CHANNELS 3 Zrotation Xrotation Yrotation
                          JOINT LeftHandPinky3
                          {
                            OFFSET 1.74189 0 0
                            CHANNELS 3 Zrotation Xrotation Yrotation
                            End Site
                            {
                              OFFSET 1.645 0 0
                            }
                          }
                        }
                      }
                    }
                  }
                }
              }
            }
          }
        }
      }
    }
  }
}
MOTION
Frames: 2
Frame Time: 0.00833333
3.150000000000000000e+03 0.000000000000000000e+00 0.000000000000000000e+00 0.000000000000000000e+00 0.000000000000000000e+00 0.000000000000000000e+00 2.446180000000000376e+01 1.219819999999999816e+01 -6.781539999999999679e+01 -2.593509999999999849e+01 -4.911220000000000141e+01 -2.746420000000000528e+01 -1.106129999999999836e+00 2.219439999999999813e+01 -9.602150000000001739e+00 1.299680000000000213e+01 8.998049999999999216e+00 2.437519999999999953e+01 2.263299999999999557e+01 -4.104030000000000200e+01 9.997889999999996391e+00 2.544790000000000774e+00 2.951699999999999946e+01 -6.056430000000000646e+00 -1.732270000000000110e+01 -1.304170000000000051e+01 -1.564509999999999934e+01 -9.373560000000001224e+00 1.272080000000000055e+01 1.752700000000000102e+01 -1.983539999999999859e+00 3.497840000000000060e+00 4.132859999999999978e+00 -3.290210000000000523e+00 5.654130000000000322e+00 6.653160000000000629e+00 1.437909999999997801e-02 -2.029859999999999998e-01 -7.095899999999999430e-01 1.454809999999984171e-02 -2.034349999999998104e-01 -7.110859999999998848e-01 -1.344639999999994728e-01 -3.774150000000000116e+00 -1.271829999999999927e+01 5.764549999999999841e+00 -1.086009999999999742e+01 1.560829999999999806e+01 7.635139999999998395e+01 -2.078229999999997801e+00 4.756889999999999930e+01 4.171269999999999811e+01 -5.195859999999999701e+01 3.337330000000000041e+01 1.534019999999999762e+01 -1.803359999999999985e+01 -1.787719999999999487e+01 2.818400000000000105e+01 1.072940000000000005e+01 1.915919999999999845e+01 -1.632340000000000015e-15 -9.939229999999980662e-17 -1.000000000000000000e+01 2.001600000000000024e-15 -2.385420000000000805e-15 -1.000000000000000000e+01 -3.180550000000000376e-15 1.590280000000000274e-15 0.000000000000000000e+00 1.998179999999999978e+01 8.718970000000000331e-01 2.396399999999999864e+00 2.400000000000000000e+01 -8.348960000000001464e-15 6.361110000000001319e-15 2.000000000000000000e+01 1.908330000000000147e-14 3.657639999999999221e-14 -3.180550000000000376e-15 1.590280000000000274e-15 0.000000000000000000e+00 2.000000000000000000e+01 0.000000000000000000e+00 1.113189999999999931e-14 2.400000000000000000e+01 4.373260000000001174e-15 -1.590280000000000116e-14 2.000000000000000000e+01 -7.951390000000007115e-16 1.590280000000000116e-14 -3.180550000000000376e-15 1.590280000000000274e-15 0.000000000000000000e+00 1.997479999999999833e+01 -1.025649999999999951e+00 -2.819380000000000219e+00 2.400000000000000000e+01 1.789059999999999927e-15 -3.180550000000001560e-15 2.000000000000000000e+01 2.385420000000000805e-15 -1.590280000000002641e-15 -3.180550000000000376e-15 1.590280000000000274e-15 0.000000000000000000e+00 1.978150000000000119e+01 -3.009479999999999933e+00 -8.305149999999999366e+00 2.400000000000000000e+01 -3.975690000000000513e-16 -1.908329999999999831e-14 2.000000000000000000e+01 4.770829999999998678e-15 9.541660000000003667e-15 1.141489999999999938e+01 -1.225740000000000052e+01 -2.804760000000000275e+01 -2.605529999999999902e+01 3.728950000000000387e+01 -7.769519999999999982e+01 8.065399999999996794e+00 -6.079189999999999827e+01 9.261410000000001475e+00 -2.339800000000000324e+01 -2.192879999999999896e+01 9.529790000000000205e+00 -2.818400000000000105e+01 1.072940000000000005e+01 -1.915919999999999845e+01 -9.688859999999999433e-15 0.000000000000000000e+00 1.000000000000000000e+01 5.898419999999999317e-15 3.180549999999999982e-15 1.000000000000000000e+01 3.180549999999999587e-15 -3.180549999999999982e-15 1.590279999999999880e-15 -1.998179999999999978e+01 8.718970000000000331e-01 -2.396399999999999864e+00 -2.400000000000000000e+01 -3.180550000000000376e-15 -1.272220000000000151e-14 -2.000000000000000000e+01 -6.758680000000000401e-15 6.361109999999999741e-15 3.180549999999999587e-15 -3.180549999999999982e-15 1.590279999999999880e-15 -2.000000000000000000e+01 -6.361109999999999741e-15 -1.908330000000000147e-14 -2.400000000000000000e+01 7.156249999999997906e-15 -3.180550000000001165e-15 -2.000000000000000000e+01 3.180549999999999193e-15 -3.180550000000000771e-15 3.180549999999999587e-15 -3.180549999999999982e-15 1.590279999999999880e-15 -1.997479999999999833e+01 -1.025649999999999951e+00 2.819380000000000219e+00 -2.400000000000000000e+01 7.951389999999999226e-16 -9.541659999999997356e-15 -2.000000000000000000e+01 7.951389999999999226e-16 3.180550000000000771e-15 3.180549999999999587e-15 -3.180549999999999982e-15 1.590279999999999880e-15 -1.978150000000000119e+01 -3.009479999999999933e+00 8.305149999999999366e+00 -2.400000000000000000e+01 1.987849999999998568e-15 -3.180549999999999193e-15 -2.000000000000000000e+01 7.951390000000001198e-16 -9.541660000000003667e-15
3.150000000000000000e+03 0.000000000000000000e+00 0.000000000000000000e+00 0.000000000000000000e+00 0.000000000000000000e+00 0.000000000000000000e+00 2.449390000000000356e+01 1.205529999999999902e+01 -6.810110000000001662e+01 -2.567280000000000229e+01 -4.924860000000000326e+01 -2.694249999999999901e+01 -1.140470000000000095e+00 2.214700000000000202e+01 -9.532379999999999853e+00 1.300239999999999974e+01 9.036159999999998860e+00 2.426200000000000401e+01 2.270279999999999987e+01 -4.091580000000000439e+01 1.035309999999999775e+01 2.641210000000000058e+00 2.957450000000000045e+01 -6.295949999999999491e+00 -1.731580000000000297e+01 -1.313270000000000159e+01 -1.549160000000000181e+01 -9.383940000000002613e+00 1.266929999999999978e+01 1.747540000000000049e+01 -1.988590000000000302e+00 3.484059999999999491e+00 4.118750000000000355e+00 -3.298169999999999380e+00 5.632470000000000532e+00 6.630060000000000286e+00 6.451350000000077856e-03 -2.029860000000000553e-01 -6.989319999999998867e-01 6.604260000000028441e-03 -2.034350000000002545e-01 -7.003289999999999793e-01 -2.720699999999993679e-01 -3.765650000000000386e+00 -1.252280000000000015e+01 5.776619999999999422e+00 -1.070630000000000059e+01 1.557479999999999976e+01 7.666089999999998383e+01 -2.245199999999996976e+00 4.723690000000000566e+01 4.310900000000000176e+01 -5.183719999999999573e+01 3.530449999999999733e+01 1.601460000000000505e+01 -1.880820000000000292e+01 -1.654059999999999775e+01 2.818400000000000105e+01 1.072940000000000005e+01 1.915919999999999845e+01 3.918099999999999986e-14 -1.590280000000000116e-14 -1.000000000000000000e+01 -5.849119999999999718e-14 -6.609589999999999393e-15 -1.000000000000000000e+01 -1.590280000000000432e-14 7.951389999999995282e-16 3.180549999999999193e-15 1.998179999999999978e+01 8.718970000000000331e-01 2.396399999999999864e+00 2.400000000000000000e+01 -1.371610000000000213e-14 -3.737150000000000388e-14 2.000000000000000000e+01 1.113189999999999931e-14 -2.305899999999998914e-14 -1.590280000000000432e-14 7.951389999999995282e-16 3.180549999999999193e-15 2.000000000000000000e+01 -7.156250000000001061e-15 -3.180550000000000771e-15 2.400000000000000000e+01 -1.292099999999999992e-14 -5.565970000000000314e-14 2.000000000000000000e+01 -7.951389999999991338e-16 -3.498609999999999948e-14 -1.590280000000000432e-14 7.951389999999995282e-16 3.180549999999999193e-15 1.997479999999999833e+01 -1.025649999999999951e+00 -2.819380000000000219e+00 2.400000000000000000e+01 -1.351740000000000149e-14 -4.929859999999999529e-14 2.000000000000000000e+01 -8.746530000000000547e-15 -5.565970000000000314e-14 -1.590280000000000432e-14 7.951389999999995282e-16 3.180549999999999193e-15 1.978150000000000119e+01 -3.009479999999999933e+00 -8.305149999999999366e+00 2.400000000000000000e+01 -3.180549999999999982e-15 -5.724999999999999587e-14 2.000000000000000000e+01 -1.192709999999999929e-14 -4.134719999999999471e-14 1.125779999999999781e+01 -1.203439999999999976e+01 -2.768400000000000105e+01 -2.534519999999999484e+01 3.757090000000000884e+01 -7.845019999999999527e+01 8.409599999999993969e+00 -5.960669999999999646e+01 9.434549999999999770e+00 -2.309329999999999927e+01 -2.059200000000000585e+01 1.015029999999999788e+01 -2.818400000000000105e+01 1.072940000000000005e+01 -1.915919999999999845e+01 3.094329999999999539e-15 1.908330000000000147e-14 1.000000000000000000e+01 2.107979999999999200e-15 6.361109999999998163e-15 1.000000000000000000e+01 0.000000000000000000e+00 3.180550000000000376e-15 1.590279999999999880e-15 -1.998179999999999978e+01 8.718970000000000331e-01 -2.396399999999999864e+00 -2.400000000000000000e+01 3.975690000000000513e-15 1.272219999999999677e-14 -2.000000000000000000e+01 -6.758680000000000401e-15 1.908330000000000147e-14 0.000000000000000000e+00 3.180550000000000376e-15 1.590279999999999880e-15 -2.000000000000000000e+01 1.590279999999999485e-15 -6.361109999999999741e-15 -2.400000000000000000e+01 1.113189999999999931e-14 3.180550000000000771e-15 -2.000000000000000000e+01 -3.578119999999999853e-15 3.816670000000000387e-14 0.000000000000000000e+00 3.180550000000000376e-15 1.590279999999999880e-15 -1.997479999999999833e+01 -1.025649999999999951e+00 2.819380000000000219e+00 -2.400000000000000000e+01 -7.951389999999999226e-15 3.180549999999999193e-15 -2.000000000000000000e+01 -3.975689999999998936e-15 2.226390000000000270e-14 0.000000000000000000e+00 3.180550000000000376e-15 1.590279999999999880e-15 -1.978150000000000119e+01 -3.009479999999999933e+00 8.305149999999999366e+00 -2.400000000000000000e+01 1.431249999999999897e-14 -3.180550000000000771e-15 -2.000000000000000000e+01 -1.590280000000000274e-15 2.544439999999999986e-14
